<svg viewBox="0 0 180 180" fill="none" xmlns="http://www.w3.org/2000/svg"><path d="M70 25H25C16.675 25 10 31.675 10 40V130C10 133.978 11.5804 137.794 14.3934 140.607C17.2064 143.42 21.0218 145 25 145H145C148.978 145 152.794 143.42 155.607 140.607C158.42 137.794 160 133.978 160 130V55C160 46.675 153.25 40 145 40H85L70 25Z" fill="#66BB6A"/><path d="M170 141.784C170 149.083 164.031 155 156.667 155C149.303 155 143.333 149.083 143.333 141.784C143.333 134.485 149.303 128.568 156.667 128.568C164.031 128.568 170 134.485 170 141.784ZM146.667 141.784C146.667 147.258 151.144 151.696 156.667 151.696C162.19 151.696 166.667 147.258 166.667 141.784C166.667 136.31 162.19 131.872 156.667 131.872C151.144 131.872 146.667 136.31 146.667 141.784Z" fill="#C8E6C9"/><ellipse cx="156.667" cy="141.784" rx="6.22223" ry="6.1674" fill="#C8E6C9"/><ellipse cx="143.333" cy="141.255" rx="4.26667" ry="4.22907" fill="#C8E6C9"/><path d="M143.333 141.784C143.333 149.083 137.364 155 130 155C122.636 155 116.667 149.083 116.667 141.784C116.667 134.485 122.636 128.568 130 128.568C137.364 128.568 143.333 134.485 143.333 141.784ZM120 141.784C120 147.258 124.477 151.696 130 151.696C135.523 151.696 140 147.258 140 141.784C140 136.31 135.523 131.872 130 131.872C124.477 131.872 120 136.31 120 141.784Z" fill="#C8E6C9"/><ellipse cx="130" cy="141.784" rx="6.22222" ry="6.1674" fill="#C8E6C9"/><ellipse cx="116.667" cy="141.255" rx="4.26667" ry="4.22907" fill="#C8E6C9"/><path d="M116.667 141.784C116.667 149.083 110.697 155 103.333 155C95.9695 155 90 149.083 90 141.784C90 134.485 95.9695 128.568 103.333 128.568C110.697 128.568 116.667 134.485 116.667 141.784ZM93.3333 141.784C93.3333 147.258 97.8105 151.696 103.333 151.696C108.856 151.696 113.333 147.258 113.333 141.784C113.333 136.31 108.856 131.872 103.333 131.872C97.8105 131.872 93.3333 136.31 93.3333 141.784Z" fill="#C8E6C9"/><ellipse cx="103.333" cy="141.784" rx="6.22222" ry="6.1674" fill="#C8E6C9"/><ellipse cx="102.8" cy="128.568" rx="4.26666" ry="4.22907" fill="#C8E6C9"/><path d="M170 114.648C170 121.946 164.031 127.863 156.667 127.863C149.303 127.863 143.333 121.946 143.333 114.648C143.333 107.349 149.303 101.432 156.667 101.432C164.031 101.432 170 107.349 170 114.648ZM146.667 114.648C146.667 120.122 151.144 124.559 156.667 124.559C162.19 124.559 166.667 120.122 166.667 114.648C166.667 109.173 162.19 104.736 156.667 104.736C151.144 104.736 146.667 109.173 146.667 114.648Z" fill="#C8E6C9"/><ellipse cx="156.667" cy="114.648" rx="6.22222" ry="6.1674" fill="#C8E6C9"/><ellipse cx="156.667" cy="128.216" rx="4.26667" ry="4.22907" fill="#C8E6C9"/><path d="M143.333 114.648C143.333 121.946 137.364 127.863 130 127.863C122.636 127.863 116.667 121.946 116.667 114.648C116.667 107.349 122.636 101.432 130 101.432C137.364 101.432 143.333 107.349 143.333 114.648ZM120 114.648C120 120.122 124.477 124.559 130 124.559C135.523 124.559 140 120.122 140 114.648C140 109.173 135.523 104.736 130 104.736C124.477 104.736 120 109.173 120 114.648Z" fill="#C8E6C9"/><ellipse cx="130" cy="114.648" rx="6.22222" ry="6.1674" fill="#C8E6C9"/><ellipse cx="116.667" cy="114.119" rx="4.26667" ry="4.22907" fill="#C8E6C9"/><ellipse cx="130" cy="128.216" rx="4.26667" ry="4.22907" fill="#C8E6C9"/><ellipse cx="143.333" cy="114.119" rx="4.26667" ry="4.22907" fill="#C8E6C9"/><ellipse cx="130" cy="101.079" rx="4.26667" ry="4.22907" fill="#C8E6C9"/><path d="M116.667 114.648C116.667 121.946 110.697 127.863 103.333 127.863C95.9695 127.863 90 121.946 90 114.648C90 107.349 95.9695 101.432 103.333 101.432C110.697 101.432 116.667 107.349 116.667 114.648ZM93.3333 114.648C93.3333 120.122 97.8105 124.559 103.333 124.559C108.856 124.559 113.333 120.122 113.333 114.648C113.333 109.173 108.856 104.736 103.333 104.736C97.8105 104.736 93.3333 109.173 93.3333 114.648Z" fill="#C8E6C9"/><ellipse cx="103.333" cy="114.648" rx="6.22222" ry="6.1674" fill="#C8E6C9"/><ellipse cx="102.8" cy="101.432" rx="4.26666" ry="4.22907" fill="#C8E6C9"/><path d="M170 88.2159C170 95.5148 164.031 101.432 156.667 101.432C149.303 101.432 143.333 95.5148 143.333 88.2159C143.333 80.9169 149.303 75 156.667 75C164.031 75 170 80.9169 170 88.2159ZM146.667 88.2159C146.667 93.69 151.144 98.1278 156.667 98.1278C162.19 98.1278 166.667 93.69 166.667 88.2159C166.667 82.7417 162.19 78.304 156.667 78.304C151.144 78.304 146.667 82.7417 146.667 88.2159Z" fill="#C8E6C9"/><ellipse cx="156.667" cy="88.2159" rx="6.22222" ry="6.1674" fill="#C8E6C9"/><ellipse cx="156.133" cy="101.432" rx="4.26667" ry="4.22907" fill="#C8E6C9"/><path d="M143.333 88.2159C143.333 95.5148 137.364 101.432 130 101.432C122.636 101.432 116.667 95.5148 116.667 88.2159C116.667 80.9169 122.636 75 130 75C137.364 75 143.333 80.9169 143.333 88.2159ZM120 88.2159C120 93.69 124.477 98.1278 130 98.1278C135.523 98.1278 140 93.69 140 88.2159C140 82.7417 135.523 78.304 130 78.304C124.477 78.304 120 82.7417 120 88.2159Z" fill="#C8E6C9"/><ellipse cx="130" cy="88.2159" rx="6.22222" ry="6.1674" fill="#C8E6C9"/><ellipse cx="143.333" cy="88.7445" rx="4.26666" ry="4.22907" fill="#C8E6C9"/><path d="M116.667 88.2159C116.667 95.5148 110.697 101.432 103.333 101.432C95.9695 101.432 90 95.5148 90 88.2159C90 80.9169 95.9695 75 103.333 75C110.697 75 116.667 80.9169 116.667 88.2159ZM93.3333 88.2159C93.3333 93.69 97.8105 98.1278 103.333 98.1278C108.856 98.1278 113.333 93.69 113.333 88.2159C113.333 82.7417 108.856 78.304 103.333 78.304C97.8105 78.304 93.3333 82.7417 93.3333 88.2159Z" fill="#C8E6C9"/><ellipse cx="103.333" cy="88.2159" rx="6.22222" ry="6.1674" fill="#C8E6C9"/><ellipse cx="116.667" cy="88.7445" rx="4.26667" ry="4.22907" fill="#C8E6C9"/></svg>