<svg viewBox="0 0 180 180" fill="none" xmlns="http://www.w3.org/2000/svg"><path d="M130.226 145H24.1443C16.2942 145 10 138.25 10 130V40C10 31.675 16.2942 25 24.1443 25H66.5771L80.7214 40H130.226C133.978 40 137.575 41.5804 140.228 44.3934C142.88 47.2064 144.371 51.0218 144.371 55H24.1443V130L39.2786 70H160L143.876 133.75C142.249 140.275 136.733 145 130.226 145Z" fill="#F44336"/><path d="M170 110C170 134.853 149.853 155 125 155C100.147 155 80 134.853 80 110C80 85.1472 100.147 65 125 65C149.853 65 170 85.1472 170 110ZM91.25 110C91.25 128.64 106.36 143.75 125 143.75C143.64 143.75 158.75 128.64 158.75 110C158.75 91.3604 143.64 76.25 125 76.25C106.36 76.25 91.25 91.3604 91.25 110Z" fill="#FFCDD2"/><circle cx="125" cy="110" r="21" fill="#FFCDD2"/><ellipse cx="153.2" cy="80.6" rx="12" ry="12" fill="#FFCDD2"/></svg>