<svg viewBox="0 0 180 180" fill="none" xmlns="http://www.w3.org/2000/svg"><path d="M130.226 145H24.1443C16.2942 145 10 138.25 10 130V40C10 31.675 16.2942 25 24.1443 25H66.5771L80.7214 40H130.226C133.978 40 137.575 41.5804 140.228 44.3934C142.88 47.2064 144.371 51.0218 144.371 55H24.1443V130L39.2786 70H160L143.876 133.75C142.249 140.275 136.733 145 130.226 145Z" fill="#2196F3"/><rect x="111.5" y="91.2852" width="39.2327" height="59.2148" stroke="#BBDEFB" stroke-width="9" stroke-linejoin="round" stroke-dasharray="10 10"/><mask id="path-3-inside-1_14_1559" fill="white"><path d="M126.293 71H170.141V133.013H126.293V71Z"/></mask><path d="M170.141 71H174.141V70.5C174.141 68.2909 172.35 66.5 170.141 66.5V71ZM174.141 133.013V127.846H166.141V133.013H174.141ZM174.141 117.51V107.174H166.141V117.51H174.141ZM174.141 96.8389V86.5034H166.141V96.8389H174.141ZM174.141 76.1678V71H166.141V76.1678H174.141ZM170.141 66.5H164.66V75.5H170.141V66.5ZM153.698 66.5H142.736V75.5H153.698V66.5ZM131.774 66.5H126.293V75.5H131.774V66.5ZM170.141 71H178.141V70C178.141 65.5817 174.559 62 170.141 62V71ZM178.141 133.013V127.846H162.141V133.013H178.141ZM178.141 117.51V107.174H162.141V117.51H178.141ZM178.141 96.8389V86.5034H162.141V96.8389H178.141ZM178.141 76.1678V71H162.141V76.1678H178.141ZM170.141 62H164.66V80H170.141V62ZM153.698 62H142.736V80H153.698V62ZM131.774 62H126.293V80H131.774V62Z" fill="#BBDEFB" mask="url(#path-3-inside-1_14_1559)"/></svg>