<svg viewBox="0 0 180 180" fill="none" xmlns="http://www.w3.org/2000/svg"><path d="M70 25H25C16.675 25 10 31.675 10 40V130C10 133.978 11.5804 137.794 14.3934 140.607C17.2064 143.42 21.0218 145 25 145H145C148.978 145 152.794 143.42 155.607 140.607C158.42 137.794 160 133.978 160 130V55C160 46.675 153.25 40 145 40H85L70 25Z" fill="#FFC107"/><path d="M119.727 131.136C119.727 144.316 109.043 155 95.8636 155C82.6841 155 72 144.316 72 131.136C72 117.957 82.6841 107.273 95.8636 107.273C109.043 107.273 119.727 117.957 119.727 131.136ZM77.9659 131.136C77.9659 141.021 85.979 149.034 95.8636 149.034C105.748 149.034 113.761 141.021 113.761 131.136C113.761 121.252 105.748 113.239 95.8636 113.239C85.979 113.239 77.9659 121.252 77.9659 131.136Z" fill="#FFECB3"/><circle cx="96.2045" cy="131.477" r="11.9318" fill="#FFECB3"/><circle cx="107.454" cy="112.727" r="5.45454" fill="#FFECB3"/><circle cx="117" cy="130.455" r="5.45454" fill="#FFECB3"/><path d="M170.182 131.136C170.182 144.316 159.498 155 146.318 155C133.139 155 122.455 144.316 122.455 131.136C122.455 117.957 133.139 107.273 146.318 107.273C159.498 107.273 170.182 117.957 170.182 131.136ZM128.421 131.136C128.421 141.021 136.434 149.034 146.318 149.034C156.203 149.034 164.216 141.021 164.216 131.136C164.216 121.252 156.203 113.239 146.318 113.239C136.434 113.239 128.421 121.252 128.421 131.136Z" fill="#FFECB3"/><ellipse cx="146.659" cy="131.477" rx="11.9318" ry="11.9318" fill="#FFECB3"/><circle cx="134.727" cy="112.727" r="5.45454" fill="#FFECB3"/><circle cx="126.545" cy="130.455" r="5.45454" fill="#FFECB3"/><path d="M145.637 88.8636C145.637 102.043 134.953 112.727 121.773 112.727C108.593 112.727 97.9094 102.043 97.9094 88.8636C97.9094 75.6841 108.593 65 121.773 65C134.953 65 145.637 75.6841 145.637 88.8636ZM103.875 88.8636C103.875 98.7483 111.888 106.761 121.773 106.761C131.658 106.761 139.671 98.7483 139.671 88.8636C139.671 78.979 131.658 70.9659 121.773 70.9659C111.888 70.9659 103.875 78.979 103.875 88.8636Z" fill="#FFECB3"/><ellipse cx="122.114" cy="89.2046" rx="11.9318" ry="11.9318" fill="#FFECB3"/><ellipse cx="111.545" cy="105.909" rx="5.45455" ry="5.45454" fill="#FFECB3"/><ellipse cx="130.637" cy="105.909" rx="5.45455" ry="5.45454" fill="#FFECB3"/></svg>