<svg viewBox="0 0 180 180" fill="none" xmlns="http://www.w3.org/2000/svg"><path d="M72 25H27C18.675 25 12 31.675 12 40V130C12 133.978 13.5804 137.794 16.3934 140.607C19.2064 143.42 23.0218 145 27 145H147C150.978 145 154.794 143.42 157.607 140.607C160.42 137.794 162 133.978 162 130V55C162 46.675 155.25 40 147 40H87L72 25Z" fill="#AB47BC"/><line x1="119" y1="77.5" x2="169" y2="77.5" stroke="#E1BEE7" stroke-width="7"/><line x1="162" y1="142.5" x2="169" y2="142.5" stroke="#E1BEE7" stroke-width="7"/><line x1="170.5" y1="74" x2="170.5" y2="146" stroke="#E1BEE7" stroke-width="7"/><line x1="122.5" y1="81" x2="122.5" y2="86" stroke="#E1BEE7" stroke-width="7"/><line x1="112" y1="85.5" x2="142" y2="85.5" stroke="#E1BEE7" stroke-width="7"/><line x1="112" y1="151.5" x2="162" y2="151.5" stroke="#E1BEE7" stroke-width="7"/><line x1="115.5" y1="89" x2="115.5" y2="155" stroke="#E1BEE7" stroke-width="7"/><line x1="162.5" y1="106" x2="162.5" y2="155" stroke="#E1BEE7" stroke-width="7"/><path d="M144.5 103.5V88.0355L159.964 103.5H144.5Z" stroke="#E1BEE7" stroke-width="5"/></svg>