<svg viewBox="0 0 180 180" fill="none" xmlns="http://www.w3.org/2000/svg"><path d="M132.226 145H26.1443C18.2942 145 12 138.25 12 130V40C12 31.675 18.2942 25 26.1443 25H68.5771L82.7214 40H132.226C135.978 40 139.575 41.5804 142.228 44.3934C144.88 47.2064 146.371 51.0218 146.371 55H26.1443V130L41.2786 70H162L145.876 133.75C144.249 140.275 138.733 145 132.226 145Z" fill="#AB47BC"/><line x1="119" y1="77.5" x2="169" y2="77.5" stroke="#E1BEE7" stroke-width="7"/><line x1="162" y1="142.5" x2="169" y2="142.5" stroke="#E1BEE7" stroke-width="7"/><line x1="170.5" y1="74" x2="170.5" y2="146" stroke="#E1BEE7" stroke-width="7"/><line x1="122.5" y1="81" x2="122.5" y2="86" stroke="#E1BEE7" stroke-width="7"/><line x1="112" y1="85.5" x2="142" y2="85.5" stroke="#E1BEE7" stroke-width="7"/><line x1="112" y1="151.5" x2="162" y2="151.5" stroke="#E1BEE7" stroke-width="7"/><line x1="115.5" y1="89" x2="115.5" y2="155" stroke="#E1BEE7" stroke-width="7"/><line x1="162.5" y1="106" x2="162.5" y2="155" stroke="#E1BEE7" stroke-width="7"/><path d="M144.5 103.5V88.0355L159.964 103.5H144.5Z" stroke="#E1BEE7" stroke-width="5"/></svg>