<svg viewBox="0 0 180 180" fill="none" xmlns="http://www.w3.org/2000/svg"><path d="M70 25H25C16.675 25 10 31.675 10 40V130C10 133.978 11.5804 137.794 14.3934 140.607C17.2064 143.42 21.0218 145 25 145H145C148.978 145 152.794 143.42 155.607 140.607C158.42 137.794 160 133.978 160 130V55C160 46.675 153.25 40 145 40H85L70 25Z" fill="#F44336"/><path d="M170 110C170 134.853 149.853 155 125 155C100.147 155 80 134.853 80 110C80 85.1472 100.147 65 125 65C149.853 65 170 85.1472 170 110ZM91.25 110C91.25 128.64 106.36 143.75 125 143.75C143.64 143.75 158.75 128.64 158.75 110C158.75 91.3604 143.64 76.25 125 76.25C106.36 76.25 91.25 91.3604 91.25 110Z" fill="#FFCDD2"/><circle cx="125" cy="110" r="21" fill="#FFCDD2"/><ellipse cx="153.2" cy="80.6" rx="12" ry="12" fill="#FFCDD2"/></svg>